<?xml version="1.0" standalone="no"?>
<!DOCTYPE svg PUBLIC "-//W3C//DTD SVG 20010904//EN"
 "http://www.w3.org/TR/2001/REC-SVG-20010904/DTD/svg10.dtd">
<svg version="1.0" xmlns="http://www.w3.org/2000/svg"
 width="505.000000pt" height="505.000000pt" viewBox="0 0 505.000000 505.000000"
 preserveAspectRatio="xMidYMid meet">
<metadata>
Created by potrace 1.14, written by Peter Selinger 2001-2017
</metadata>
<g transform="translate(0.000000,505.000000) scale(0.100000,-0.100000)"
fill="#000000" stroke="none">
<path d="M2309 4966 c-2 -2 -35 -6 -74 -9 -393 -34 -853 -213 -1193 -464 -517
-383 -863 -942 -972 -1573 -22 -125 -42 -402 -35 -483 2 -29 7 -95 10 -148 15
-262 119 -639 247 -892 190 -378 506 -732 863 -966 190 -125 433 -236 665
-305 429 -126 948 -126 1370 0 488 146 901 418 1230 809 28 34 162 223 199
282 48 76 149 282 190 388 38 99 101 307 115 381 76 410 69 760 -24 1124 -112
441 -337 830 -668 1158 -84 82 -93 94 -81 110 8 9 67 79 131 155 129 152 142
179 113 241 -20 43 -59 66 -109 66 -35 0 -129 -58 -356 -220 -73 -52 -73 -52
-159 4 -61 39 -260 138 -351 174 -295 117 -594 172 -931 172 -97 0 -178 -2
-180 -4z"/>
</g>
</svg>
